<?xml version="1.0" encoding="UTF-8" standalone="no"?>
<!DOCTYPE svg PUBLIC "-//W3C//DTD SVG 1.1//EN"
 "http://www.w3.org/Graphics/SVG/1.1/DTD/svg11.dtd">
<!-- Generated by graphviz version 3.0.0 (20220226.1711)
 -->
<!-- Title: sum Pages: 1 -->
<svg width="606pt" height="317pt"
 viewBox="0.00 0.00 606.38 316.80" xmlns="http://www.w3.org/2000/svg" xmlns:xlink="http://www.w3.org/1999/xlink">
<g id="graph0" class="graph" transform="scale(1 1) rotate(0) translate(4 312.8)">
<title>sum</title>
<polygon fill="white" stroke="transparent" points="-4,4 -4,-312.8 602.38,-312.8 602.38,4 -4,4"/>
<!-- qi -->
<g id="node1" class="node">
<title>qi</title>
<ellipse fill="black" stroke="black" cx="1.8" cy="-110" rx="1.8" ry="1.8"/>
</g>
<!-- q0 -->
<g id="node3" class="node">
<title>q0</title>
<ellipse fill="none" stroke="black" cx="61.4" cy="-110" rx="20.6" ry="20.6"/>
<text text-anchor="middle" x="61.4" y="-106.3" font-family="Helvetica,Arial,sans-serif" font-size="14.00">q0</text>
</g>
<!-- qi&#45;&gt;q0 -->
<g id="edge1" class="edge">
<title>qi&#45;&gt;q0</title>
<path fill="none" stroke="black" d="M3.8,-110C7.17,-110 18.58,-110 30.28,-110"/>
<polygon fill="black" stroke="black" points="30.45,-113.5 40.45,-110 30.45,-106.5 30.45,-113.5"/>
</g>
<!-- qaccept -->
<g id="node2" class="node">
<title>qaccept</title>
<ellipse fill="none" stroke="black" cx="306.39" cy="-171" rx="41.68" ry="41.68"/>
<ellipse fill="none" stroke="black" cx="306.39" cy="-171" rx="45.69" ry="45.69"/>
<text text-anchor="middle" x="306.39" y="-167.3" font-family="Helvetica,Arial,sans-serif" font-size="14.00">qaccept</text>
</g>
<!-- q1 -->
<g id="node4" class="node">
<title>q1</title>
<ellipse fill="none" stroke="black" cx="306.39" cy="-255" rx="20.6" ry="20.6"/>
<text text-anchor="middle" x="306.39" y="-251.3" font-family="Helvetica,Arial,sans-serif" font-size="14.00">q1</text>
</g>
<!-- q0&#45;&gt;q1 -->
<g id="edge2" class="edge">
<title>q0&#45;&gt;q1</title>
<path fill="none" stroke="black" d="M73.8,-126.72C88.89,-147.73 117.32,-183.76 149.2,-206 188,-233.08 242.39,-245.66 275.68,-251.15"/>
<polygon fill="black" stroke="black" points="275.29,-254.63 285.71,-252.69 276.35,-247.71 275.29,-254.63"/>
<text text-anchor="middle" x="169.99" y="-231.8" font-family="Helvetica,Arial,sans-serif" font-size="14.00">a,x,R</text>
</g>
<!-- q5 -->
<g id="node5" class="node">
<title>q5</title>
<ellipse fill="none" stroke="black" cx="306.39" cy="-54" rx="20.6" ry="20.6"/>
<text text-anchor="middle" x="306.39" y="-50.3" font-family="Helvetica,Arial,sans-serif" font-size="14.00">q5</text>
</g>
<!-- q0&#45;&gt;q5 -->
<g id="edge3" class="edge">
<title>q0&#45;&gt;q5</title>
<path fill="none" stroke="black" d="M81.87,-105.51C124.35,-95.72 225.54,-72.4 275.89,-60.8"/>
<polygon fill="black" stroke="black" points="276.86,-64.17 285.82,-58.51 275.29,-57.34 276.86,-64.17"/>
<text text-anchor="middle" x="169.99" y="-92.8" font-family="Helvetica,Arial,sans-serif" font-size="14.00">b,x,R</text>
</g>
<!-- q4 -->
<g id="node6" class="node">
<title>q4</title>
<ellipse fill="none" stroke="black" cx="169.99" cy="-143" rx="20.6" ry="20.6"/>
<text text-anchor="middle" x="169.99" y="-139.3" font-family="Helvetica,Arial,sans-serif" font-size="14.00">q4</text>
</g>
<!-- q0&#45;&gt;q4 -->
<g id="edge4" class="edge">
<title>q0&#45;&gt;q4</title>
<path fill="none" stroke="black" d="M81.46,-115.9C97.73,-120.94 121.38,-128.26 140,-134.02"/>
<polygon fill="black" stroke="black" points="139.15,-137.43 149.74,-137.04 141.23,-130.74 139.15,-137.43"/>
<text text-anchor="middle" x="115.7" y="-133.8" font-family="Helvetica,Arial,sans-serif" font-size="14.00">x,x,R</text>
</g>
<!-- q1&#45;&gt;q1 -->
<g id="edge5" class="edge">
<title>q1&#45;&gt;q1</title>
<path fill="none" stroke="black" d="M293.19,-271.35C289.19,-282.66 293.59,-293.8 306.39,-293.8 315.19,-293.8 320.02,-288.53 320.87,-281.57"/>
<polygon fill="black" stroke="black" points="324.31,-280.83 319.59,-271.35 317.36,-281.7 324.31,-280.83"/>
<text text-anchor="middle" x="306.39" y="-297.6" font-family="Helvetica,Arial,sans-serif" font-size="14.00">a,a,R; b,b,R</text>
</g>
<!-- q2 -->
<g id="node7" class="node">
<title>q2</title>
<ellipse fill="none" stroke="black" cx="546.38" cy="-81" rx="20.6" ry="20.6"/>
<text text-anchor="middle" x="546.38" y="-77.3" font-family="Helvetica,Arial,sans-serif" font-size="14.00">q2</text>
</g>
<!-- q1&#45;&gt;q2 -->
<g id="edge6" class="edge">
<title>q1&#45;&gt;q2</title>
<path fill="none" stroke="black" d="M326.15,-247.51C345.39,-239.56 375.95,-226.22 400.99,-212 428.94,-196.12 436.18,-191.93 460.58,-171 484.82,-150.21 509.52,-123.2 525.96,-104.21"/>
<polygon fill="black" stroke="black" points="528.63,-106.47 532.48,-96.6 523.32,-101.92 528.63,-106.47"/>
<text text-anchor="middle" x="439.78" y="-204.8" font-family="Helvetica,Arial,sans-serif" font-size="14.00">c,x,L</text>
</g>
<!-- q3 -->
<g id="node8" class="node">
<title>q3</title>
<ellipse fill="none" stroke="black" cx="439.78" cy="-108" rx="20.6" ry="20.6"/>
<text text-anchor="middle" x="439.78" y="-104.3" font-family="Helvetica,Arial,sans-serif" font-size="14.00">q3</text>
</g>
<!-- q1&#45;&gt;q3 -->
<g id="edge7" class="edge">
<title>q1&#45;&gt;q3</title>
<path fill="none" stroke="black" d="M325.21,-245.85C333.95,-240.79 344.23,-233.92 351.99,-226 362.6,-215.16 361.34,-209.46 369.99,-197 385.78,-174.25 405.18,-149.4 419.35,-131.75"/>
<polygon fill="black" stroke="black" points="422.29,-133.69 425.85,-123.71 416.84,-129.29 422.29,-133.69"/>
<text text-anchor="middle" x="385.49" y="-200.8" font-family="Helvetica,Arial,sans-serif" font-size="14.00">x,x,R</text>
</g>
<!-- q5&#45;&gt;q5 -->
<g id="edge16" class="edge">
<title>q5&#45;&gt;q5</title>
<path fill="none" stroke="black" d="M293.19,-70.35C289.19,-81.66 293.59,-92.8 306.39,-92.8 315.19,-92.8 320.02,-87.53 320.87,-80.57"/>
<polygon fill="black" stroke="black" points="324.31,-79.83 319.59,-70.35 317.36,-80.7 324.31,-79.83"/>
<text text-anchor="middle" x="306.39" y="-96.6" font-family="Helvetica,Arial,sans-serif" font-size="14.00">b,b,R</text>
</g>
<!-- q5&#45;&gt;q2 -->
<g id="edge17" class="edge">
<title>q5&#45;&gt;q2</title>
<path fill="none" stroke="black" d="M327.31,-54.22C356.63,-54.75 413.06,-56.6 460.58,-63 479.18,-65.51 499.78,-69.84 516.01,-73.63"/>
<polygon fill="black" stroke="black" points="515.45,-77.09 525.99,-76.01 517.08,-70.28 515.45,-77.09"/>
<text text-anchor="middle" x="439.78" y="-66.8" font-family="Helvetica,Arial,sans-serif" font-size="14.00">c,x,L</text>
</g>
<!-- q5&#45;&gt;q3 -->
<g id="edge18" class="edge">
<title>q5&#45;&gt;q3</title>
<path fill="none" stroke="black" d="M325.94,-61.62C348.04,-70.71 385.21,-85.98 410.81,-96.5"/>
<polygon fill="black" stroke="black" points="409.75,-99.85 420.33,-100.42 412.41,-93.38 409.75,-99.85"/>
<text text-anchor="middle" x="385.49" y="-95.8" font-family="Helvetica,Arial,sans-serif" font-size="14.00">x,x,R</text>
</g>
<!-- q4&#45;&gt;qaccept -->
<g id="edge15" class="edge">
<title>q4&#45;&gt;qaccept</title>
<path fill="none" stroke="black" d="M190.54,-147.07C206.56,-150.41 230.04,-155.3 251.6,-159.79"/>
<polygon fill="black" stroke="black" points="251.15,-163.28 261.66,-161.89 252.58,-156.42 251.15,-163.28"/>
<text text-anchor="middle" x="225.79" y="-160.8" font-family="Helvetica,Arial,sans-serif" font-size="14.00">~,~,R</text>
</g>
<!-- q4&#45;&gt;q1 -->
<g id="edge13" class="edge">
<title>q4&#45;&gt;q1</title>
<path fill="none" stroke="black" d="M185.25,-157.61C202.41,-174.85 232.48,-203.97 260.79,-226 266.57,-230.5 273.05,-234.99 279.24,-239.05"/>
<polygon fill="black" stroke="black" points="277.67,-242.2 287.98,-244.64 281.44,-236.3 277.67,-242.2"/>
<text text-anchor="middle" x="225.79" y="-214.8" font-family="Helvetica,Arial,sans-serif" font-size="14.00">a,x,R</text>
</g>
<!-- q4&#45;&gt;q5 -->
<g id="edge14" class="edge">
<title>q4&#45;&gt;q5</title>
<path fill="none" stroke="black" d="M187.74,-131.91C210.88,-116.59 252.83,-88.81 279.87,-70.9"/>
<polygon fill="black" stroke="black" points="282.02,-73.67 288.43,-65.23 278.16,-67.84 282.02,-73.67"/>
<text text-anchor="middle" x="225.79" y="-119.8" font-family="Helvetica,Arial,sans-serif" font-size="14.00">b,x,R</text>
</g>
<!-- q4&#45;&gt;q4 -->
<g id="edge12" class="edge">
<title>q4&#45;&gt;q4</title>
<path fill="none" stroke="black" d="M160.35,-161.76C158.55,-172.19 161.77,-181.8 169.99,-181.8 175.39,-181.8 178.63,-177.66 179.71,-171.87"/>
<polygon fill="black" stroke="black" points="183.21,-171.74 179.63,-161.76 176.21,-171.79 183.21,-171.74"/>
<text text-anchor="middle" x="169.99" y="-185.6" font-family="Helvetica,Arial,sans-serif" font-size="14.00">x,x,R</text>
</g>
<!-- q2&#45;&gt;q0 -->
<g id="edge9" class="edge">
<title>q2&#45;&gt;q0</title>
<path fill="none" stroke="black" d="M534.13,-63.82C517.04,-40.05 482.12,0 440.78,0 168.99,0 168.99,0 168.99,0 123.49,0 91.19,-49.14 74.78,-81.73"/>
<polygon fill="black" stroke="black" points="71.58,-80.31 70.38,-90.84 77.88,-83.36 71.58,-80.31"/>
<text text-anchor="middle" x="306.39" y="-3.8" font-family="Helvetica,Arial,sans-serif" font-size="14.00">~,~,R</text>
</g>
<!-- q2&#45;&gt;q2 -->
<g id="edge8" class="edge">
<title>q2&#45;&gt;q2</title>
<path fill="none" stroke="black" d="M537.1,-99.76C535.36,-110.19 538.46,-119.8 546.38,-119.8 551.58,-119.8 554.7,-115.66 555.74,-109.87"/>
<polygon fill="black" stroke="black" points="559.24,-109.74 555.66,-99.76 552.24,-109.79 559.24,-109.74"/>
<text text-anchor="middle" x="546.38" y="-123.6" font-family="Helvetica,Arial,sans-serif" font-size="14.00">a,a,L; b,b,L; x,x,L</text>
</g>
<!-- q3&#45;&gt;q2 -->
<g id="edge11" class="edge">
<title>q3&#45;&gt;q2</title>
<path fill="none" stroke="black" d="M460.46,-102.92C476.19,-98.86 498.48,-93.11 516.27,-88.51"/>
<polygon fill="black" stroke="black" points="517.34,-91.85 526.15,-85.96 515.59,-85.08 517.34,-91.85"/>
<text text-anchor="middle" x="493.08" y="-100.8" font-family="Helvetica,Arial,sans-serif" font-size="14.00">c,x,L</text>
</g>
<!-- q3&#45;&gt;q3 -->
<g id="edge10" class="edge">
<title>q3&#45;&gt;q3</title>
<path fill="none" stroke="black" d="M430.5,-126.76C428.77,-137.19 431.86,-146.8 439.78,-146.8 444.98,-146.8 448.1,-142.66 449.14,-136.87"/>
<polygon fill="black" stroke="black" points="452.64,-136.74 449.07,-126.76 445.64,-136.79 452.64,-136.74"/>
<text text-anchor="middle" x="439.78" y="-150.6" font-family="Helvetica,Arial,sans-serif" font-size="14.00">x,x,R</text>
</g>
</g>
</svg>
